<?xml version="1.0" encoding="UTF-8" standalone="no"?><!DOCTYPE svg PUBLIC "-//W3C//DTD SVG 1.1//EN" "http://www.w3.org/Graphics/SVG/1.1/DTD/svg11.dtd"><!-- Generated by graphviz version 2.40.1 (20161225.0304)
 --><!-- Title: G Pages: 1 --><svg xmlns="http://www.w3.org/2000/svg" xmlns:xlink="http://www.w3.org/1999/xlink" width="867pt" height="371pt" viewBox="0.00 0.00 866.92 371.00">
<g id="graph0" class="graph" transform="scale(1 1) rotate(0) translate(4 367)">
<title>G</title>
<polygon fill="#ffffff" stroke="transparent" points="-4,4 -4,-367 862.9245,-367 862.9245,4 -4,4"/>
<!-- a -->
<g id="node1" class="node">
<title>a</title>
<ellipse fill="none" stroke="#000000" cx="396.9212" cy="-345" rx="27.8228" ry="18"/>
<text text-anchor="middle" x="396.9212" y="-340.8" font-family="Times,serif" font-size="14.00" fill="#000000">start</text>
</g>
<!-- b -->
<g id="node2" class="node">
<title>b</title>
<ellipse fill="none" stroke="#000000" cx="298.9212" cy="-164" rx="69.5062" ry="18"/>
<text text-anchor="middle" x="298.9212" y="-159.8" font-family="Times,serif" font-size="14.00" fill="#000000">Wasser kochen</text>
</g>
<!-- a&#45;&gt;b -->
<g id="edge1" class="edge">
<title>a-&gt;b</title>
<path fill="none" stroke="#000000" d="M383.3491,-329.02C366.6186,-308.6208 338.2771,-271.6822 320.9212,-236 314.133,-222.0441 308.9091,-205.5456 305.2586,-191.865"/>
<polygon fill="#000000" stroke="#000000" points="308.6192,-190.878 302.7739,-182.0415 301.833,-192.5945 308.6192,-190.878"/>
</g>
<!-- i -->
<g id="node9" class="node">
<title>i</title>
<ellipse fill="none" stroke="#000000" cx="396.9212" cy="-218" rx="66.6344" ry="18"/>
<text text-anchor="middle" x="396.9212" y="-213.8" font-family="Times,serif" font-size="14.00" fill="#000000">Brotschneiden</text>
</g>
<!-- a&#45;&gt;i -->
<g id="edge10" class="edge">
<title>a-&gt;i</title>
<path fill="none" stroke="#000000" d="M396.9212,-326.804C396.9212,-305.7735 396.9212,-270.9094 396.9212,-246.3236"/>
<polygon fill="#000000" stroke="#000000" points="400.4213,-246.1622 396.9212,-236.1622 393.4213,-246.1623 400.4213,-246.1622"/>
</g>
<!-- v -->
<g id="node10" class="node">
<title>v</title>
<ellipse fill="none" stroke="#000000" stroke-dasharray="5,2" cx="544.9212" cy="-272" rx="59.0872" ry="18"/>
<text text-anchor="middle" x="544.9212" y="-267.8" font-family="Times,serif" font-size="14.00" fill="#000000">vegetarisch?</text>
</g>
<!-- a&#45;&gt;v -->
<g id="edge14" class="edge">
<title>a-&gt;v</title>
<path fill="none" stroke="#000000" d="M419.0783,-334.0712C441.6823,-322.9219 477.2558,-305.3755 504.8222,-291.7786"/>
<polygon fill="#000000" stroke="#000000" points="506.4134,-294.8964 513.8335,-287.3338 503.3168,-288.6185 506.4134,-294.8964"/>
</g>
<!-- c -->
<g id="node3" class="node">
<title>c</title>
<ellipse fill="none" stroke="#000000" cx="49.9212" cy="-91" rx="49.8424" ry="18"/>
<text text-anchor="middle" x="49.9212" y="-86.8" font-family="Times,serif" font-size="14.00" fill="#000000">Ei kochen</text>
</g>
<!-- b&#45;&gt;c -->
<g id="edge2" class="edge">
<title>b-&gt;c</title>
<path fill="none" stroke="#000000" d="M252.0172,-150.6252C213.5294,-139.6015 157.638,-123.4817 108.9212,-109 105.3219,-107.9301 101.6018,-106.8156 97.8615,-105.6888"/>
<polygon fill="#000000" stroke="#000000" points="98.5677,-102.2458 87.9826,-102.6995 96.5403,-108.9458 98.5677,-102.2458"/>
</g>
<!-- d -->
<g id="node4" class="node">
<title>d</title>
<ellipse fill="none" stroke="#000000" cx="180.9212" cy="-91" rx="62.5653" ry="18"/>
<text text-anchor="middle" x="180.9212" y="-86.8" font-family="Times,serif" font-size="14.00" fill="#000000">Tee br체hen</text>
</g>
<!-- b&#45;&gt;d -->
<g id="edge3" class="edge">
<title>b-&gt;d</title>
<path fill="none" stroke="#000000" d="M271.8496,-147.2523C255.394,-137.0722 234.1965,-123.9585 216.4083,-112.9539"/>
<polygon fill="#000000" stroke="#000000" points="217.8057,-109.7028 207.4601,-107.4182 214.1229,-115.6557 217.8057,-109.7028"/>
</g>
<!-- e -->
<g id="node5" class="node">
<title>e</title>
<ellipse fill="none" stroke="#000000" cx="298.9212" cy="-91" rx="37.0963" ry="18"/>
<text text-anchor="middle" x="298.9212" y="-86.8" font-family="Times,serif" font-size="14.00" fill="#000000">Kaffee</text>
</g>
<!-- b&#45;&gt;e -->
<g id="edge4" class="edge">
<title>b-&gt;e</title>
<path fill="none" stroke="#000000" d="M298.9212,-145.9551C298.9212,-137.8828 298.9212,-128.1764 298.9212,-119.1817"/>
<polygon fill="#000000" stroke="#000000" points="302.4213,-119.0903 298.9212,-109.0904 295.4213,-119.0904 302.4213,-119.0903"/>
</g>
<!-- f -->
<g id="node6" class="node">
<title>f</title>
<ellipse fill="none" stroke="#000000" cx="298.9212" cy="-18" rx="74.7226" ry="18"/>
<text text-anchor="middle" x="298.9212" y="-13.8" font-family="Times,serif" font-size="14.00" fill="#000000">Fr체hst체cken</text>
</g>
<!-- c&#45;&gt;f -->
<g id="edge7" class="edge">
<title>c-&gt;f</title>
<path fill="none" stroke="#000000" d="M87.9826,-79.3005C94.9429,-77.1859 102.1461,-75.014 108.9212,-73 153.0374,-59.8859 203.037,-45.4285 240.6684,-34.6286"/>
<polygon fill="#000000" stroke="#000000" points="241.7996,-37.9454 250.4474,-31.8245 239.8701,-31.2165 241.7996,-37.9454"/>
</g>
<!-- d&#45;&gt;f -->
<g id="edge5" class="edge">
<title>d-&gt;f</title>
<path fill="none" stroke="#000000" d="M207.4027,-74.6174C223.7202,-64.5226 244.8637,-51.4423 262.7166,-40.3978"/>
<polygon fill="#000000" stroke="#000000" points="265.0467,-43.0719 271.7095,-34.8343 261.3639,-37.119 265.0467,-43.0719"/>
</g>
<!-- e&#45;&gt;f -->
<g id="edge6" class="edge">
<title>e-&gt;f</title>
<path fill="none" stroke="#000000" d="M298.9212,-72.9551C298.9212,-64.8828 298.9212,-55.1764 298.9212,-46.1817"/>
<polygon fill="#000000" stroke="#000000" points="302.4213,-46.0903 298.9212,-36.0904 295.4213,-46.0904 302.4213,-46.0903"/>
</g>
<!-- f&#45;&gt;b -->
<g id="edge16" class="edge">
<title>f-&gt;b</title>
<path fill="none" stroke="#000000" d="M319.2772,-35.6988C329.0484,-45.5648 339.7385,-58.7251 344.9212,-73 350.3814,-88.0395 350.3814,-93.9605 344.9212,-109 340.9532,-119.9292 333.7569,-130.2051 326.2163,-138.8494"/>
<polygon fill="#000000" stroke="#000000" points="323.5306,-136.5976 319.2772,-146.3012 328.6535,-141.368 323.5306,-136.5976"/>
<text text-anchor="middle" x="381.1972" y="-86.8" font-family="Times,serif" font-size="14.00" fill="#000000">Kaffee leer</text>
</g>
<!-- g -->
<g id="node7" class="node">
<title>g</title>
<ellipse fill="none" stroke="#000000" cx="544.9212" cy="-164" rx="119.7849" ry="18"/>
<text text-anchor="middle" x="544.9212" y="-159.8" font-family="Times,serif" font-size="14.00" fill="#000000">K채se in Scheiben schneiden</text>
</g>
<!-- j -->
<g id="node11" class="node">
<title>j</title>
<ellipse fill="none" stroke="#000000" cx="524.9212" cy="-91" rx="53.309" ry="18"/>
<text text-anchor="middle" x="524.9212" y="-86.8" font-family="Times,serif" font-size="14.00" fill="#000000">Auftischen</text>
</g>
<!-- g&#45;&gt;j -->
<g id="edge11" class="edge">
<title>g-&gt;j</title>
<path fill="none" stroke="#000000" d="M539.9773,-145.9551C537.7417,-137.7951 535.0486,-127.9652 532.5619,-118.8887"/>
<polygon fill="#000000" stroke="#000000" points="535.8955,-117.8101 529.8774,-109.0904 529.1442,-119.6598 535.8955,-117.8101"/>
</g>
<!-- h -->
<g id="node8" class="node">
<title>h</title>
<ellipse fill="none" stroke="#000000" cx="770.9212" cy="-164" rx="88.0066" ry="18"/>
<text text-anchor="middle" x="770.9212" y="-159.8" font-family="Times,serif" font-size="14.00" fill="#000000">Schinken schneiden</text>
</g>
<!-- h&#45;&gt;j -->
<g id="edge12" class="edge">
<title>h-&gt;j</title>
<path fill="none" stroke="#000000" d="M720.8429,-149.1394C678.225,-136.4926 617.3271,-118.4213 574.7739,-105.7937"/>
<polygon fill="#000000" stroke="#000000" points="575.7636,-102.4366 565.1811,-102.9471 573.7722,-109.1474 575.7636,-102.4366"/>
</g>
<!-- i&#45;&gt;j -->
<g id="edge13" class="edge">
<title>i-&gt;j</title>
<path fill="none" stroke="#000000" d="M397.6277,-199.8775C399.1171,-184.0866 403.4723,-161.3709 415.9212,-146 430.8446,-127.5736 453.5394,-114.7488 474.3639,-106.1486"/>
<polygon fill="#000000" stroke="#000000" points="475.7161,-109.3782 483.7657,-102.4895 473.1772,-102.8548 475.7161,-109.3782"/>
</g>
<!-- v&#45;&gt;g -->
<g id="edge8" class="edge">
<title>v-&gt;g</title>
<path fill="none" stroke="#000000" stroke-dasharray="5,2" d="M544.9212,-253.6793C544.9212,-236.821 544.9212,-211.5651 544.9212,-192.147"/>
<polygon fill="#000000" stroke="#000000" points="548.4213,-192.0501 544.9212,-182.0502 541.4213,-192.0502 548.4213,-192.0501"/>
</g>
<!-- v&#45;&gt;h -->
<g id="edge9" class="edge">
<title>v-&gt;h</title>
<path fill="none" stroke="#000000" stroke-dasharray="5,2" d="M576.8221,-256.7553C616.1256,-237.9731 683.095,-205.97 727.1767,-184.9044"/>
<polygon fill="#000000" stroke="#000000" points="728.7041,-188.0537 736.2177,-180.5839 725.6859,-181.7378 728.7041,-188.0537"/>
</g>
<!-- j&#45;&gt;f -->
<g id="edge15" class="edge">
<title>j-&gt;f</title>
<path fill="none" stroke="#000000" d="M486.3272,-78.5338C449.7957,-66.7338 394.5873,-48.901 353.5439,-35.6436"/>
<polygon fill="#000000" stroke="#000000" points="354.5545,-32.292 343.9627,-32.5488 352.4028,-38.9532 354.5545,-32.292"/>
</g>
</g>
</svg>