<?xml version="1.0" encoding="UTF-8" standalone="no"?><!DOCTYPE svg PUBLIC "-//W3C//DTD SVG 1.1//EN" "http://www.w3.org/Graphics/SVG/1.1/DTD/svg11.dtd"><!-- Generated by graphviz version 2.40.1 (20161225.0304)
 --><!-- Title: G Pages: 1 --><svg xmlns="http://www.w3.org/2000/svg" xmlns:xlink="http://www.w3.org/1999/xlink" width="744pt" height="332pt" viewBox="0.00 0.00 743.92 332.00">
<g id="graph0" class="graph" transform="scale(1 1) rotate(0) translate(4 328)">
<title>G</title>
<polygon fill="#ffffff" stroke="transparent" points="-4,4 -4,-328 739.9245,-328 739.9245,4 -4,4"/>
<!-- a -->
<g id="node1" class="node">
<title>a</title>
<ellipse fill="none" stroke="#000000" cx="273.9212" cy="-306" rx="27.8228" ry="18"/>
<text text-anchor="middle" x="273.9212" y="-301.8" font-family="Times,serif" font-size="14.00" fill="#000000">start</text>
</g>
<!-- b -->
<g id="node2" class="node">
<title>b</title>
<ellipse fill="none" stroke="#000000" cx="175.9212" cy="-162" rx="69.5062" ry="18"/>
<text text-anchor="middle" x="175.9212" y="-157.8" font-family="Times,serif" font-size="14.00" fill="#000000">Wasser kochen</text>
</g>
<!-- a&#45;&gt;b -->
<g id="edge1" class="edge">
<title>a-&gt;b</title>
<path fill="none" stroke="#000000" d="M251.2357,-295.4874C234.047,-286.3662 211.194,-271.5519 197.9212,-252 185.4778,-233.67 180.0557,-209.0116 177.7017,-190.1405"/>
<polygon fill="#000000" stroke="#000000" points="181.1696,-189.6481 176.6623,-180.0599 174.2065,-190.3661 181.1696,-189.6481"/>
</g>
<!-- i -->
<g id="node9" class="node">
<title>i</title>
<ellipse fill="none" stroke="#000000" cx="273.9212" cy="-234" rx="66.6344" ry="18"/>
<text text-anchor="middle" x="273.9212" y="-229.8" font-family="Times,serif" font-size="14.00" fill="#000000">Brotschneiden</text>
</g>
<!-- a&#45;&gt;i -->
<g id="edge10" class="edge">
<title>a-&gt;i</title>
<path fill="none" stroke="#000000" d="M273.9212,-287.8314C273.9212,-280.131 273.9212,-270.9743 273.9212,-262.4166"/>
<polygon fill="#000000" stroke="#000000" points="277.4213,-262.4132 273.9212,-252.4133 270.4213,-262.4133 277.4213,-262.4132"/>
</g>
<!-- v -->
<g id="node10" class="node">
<title>v</title>
<ellipse fill="none" stroke="#000000" stroke-dasharray="5,2" cx="421.9212" cy="-234" rx="59.0872" ry="18"/>
<text text-anchor="middle" x="421.9212" y="-229.8" font-family="Times,serif" font-size="14.00" fill="#000000">vegetarisch?</text>
</g>
<!-- a&#45;&gt;v -->
<g id="edge14" class="edge">
<title>a-&gt;v</title>
<path fill="none" stroke="#000000" d="M296.0783,-295.2209C318.5374,-284.2948 353.8002,-267.1399 381.2911,-253.766"/>
<polygon fill="#000000" stroke="#000000" points="382.8252,-256.9119 390.2864,-249.3899 379.7629,-250.6173 382.8252,-256.9119"/>
</g>
<!-- c -->
<g id="node3" class="node">
<title>c</title>
<ellipse fill="none" stroke="#000000" cx="49.9212" cy="-90" rx="49.8424" ry="18"/>
<text text-anchor="middle" x="49.9212" y="-85.8" font-family="Times,serif" font-size="14.00" fill="#000000">Ei kochen</text>
</g>
<!-- b&#45;&gt;c -->
<g id="edge2" class="edge">
<title>b-&gt;c</title>
<path fill="none" stroke="#000000" d="M147.0142,-145.4817C128.8249,-135.0878 105.2096,-121.5934 85.8235,-110.5156"/>
<polygon fill="#000000" stroke="#000000" points="87.3884,-107.3787 76.9695,-105.4562 83.9154,-113.4565 87.3884,-107.3787"/>
</g>
<!-- d -->
<g id="node4" class="node">
<title>d</title>
<ellipse fill="none" stroke="#000000" cx="180.9212" cy="-90" rx="62.5653" ry="18"/>
<text text-anchor="middle" x="180.9212" y="-85.8" font-family="Times,serif" font-size="14.00" fill="#000000">Tee br체hen</text>
</g>
<!-- b&#45;&gt;d -->
<g id="edge3" class="edge">
<title>b-&gt;d</title>
<path fill="none" stroke="#000000" d="M177.1829,-143.8314C177.7176,-136.131 178.3535,-126.9743 178.9478,-118.4166"/>
<polygon fill="#000000" stroke="#000000" points="182.4412,-118.6317 179.6425,-108.4133 175.458,-118.1467 182.4412,-118.6317"/>
</g>
<!-- e -->
<g id="node5" class="node">
<title>e</title>
<ellipse fill="none" stroke="#000000" cx="298.9212" cy="-90" rx="37.0963" ry="18"/>
<text text-anchor="middle" x="298.9212" y="-85.8" font-family="Times,serif" font-size="14.00" fill="#000000">Kaffee</text>
</g>
<!-- b&#45;&gt;e -->
<g id="edge4" class="edge">
<title>b-&gt;e</title>
<path fill="none" stroke="#000000" d="M204.1398,-145.4817C222.6309,-134.6577 246.866,-120.4713 266.201,-109.1532"/>
<polygon fill="#000000" stroke="#000000" points="268.1144,-112.0889 274.9764,-104.0165 264.5781,-106.0477 268.1144,-112.0889"/>
</g>
<!-- f -->
<g id="node6" class="node">
<title>f</title>
<ellipse fill="none" stroke="#000000" cx="239.9212" cy="-18" rx="74.7226" ry="18"/>
<text text-anchor="middle" x="239.9212" y="-13.8" font-family="Times,serif" font-size="14.00" fill="#000000">Fr체hst체cken</text>
</g>
<!-- c&#45;&gt;f -->
<g id="edge7" class="edge">
<title>c-&gt;f</title>
<path fill="none" stroke="#000000" d="M84.7701,-76.7941C114.3146,-65.5983 157.0445,-49.4059 190.1843,-36.8476"/>
<polygon fill="#000000" stroke="#000000" points="191.5852,-40.0597 199.696,-33.2432 189.1046,-33.514 191.5852,-40.0597"/>
</g>
<!-- d&#45;&gt;f -->
<g id="edge5" class="edge">
<title>d-&gt;f</title>
<path fill="none" stroke="#000000" d="M195.5054,-72.2022C202.526,-63.6348 211.0759,-53.2009 218.7927,-43.7839"/>
<polygon fill="#000000" stroke="#000000" points="221.6691,-45.7957 225.3002,-35.8425 216.2547,-41.359 221.6691,-45.7957"/>
</g>
<!-- e&#45;&gt;f -->
<g id="edge6" class="edge">
<title>e-&gt;f</title>
<path fill="none" stroke="#000000" d="M284.939,-72.937C277.751,-64.1652 268.8447,-53.2965 260.856,-43.5476"/>
<polygon fill="#000000" stroke="#000000" points="263.4646,-41.2088 254.4191,-35.6924 258.0502,-45.6456 263.4646,-41.2088"/>
</g>
<!-- g -->
<g id="node7" class="node">
<title>g</title>
<ellipse fill="none" stroke="#000000" cx="421.9212" cy="-162" rx="119.7849" ry="18"/>
<text text-anchor="middle" x="421.9212" y="-157.8" font-family="Times,serif" font-size="14.00" fill="#000000">K채se in Scheiben schneiden</text>
</g>
<!-- j -->
<g id="node11" class="node">
<title>j</title>
<ellipse fill="none" stroke="#000000" cx="416.9212" cy="-90" rx="53.309" ry="18"/>
<text text-anchor="middle" x="416.9212" y="-85.8" font-family="Times,serif" font-size="14.00" fill="#000000">Auftischen</text>
</g>
<!-- g&#45;&gt;j -->
<g id="edge11" class="edge">
<title>g-&gt;j</title>
<path fill="none" stroke="#000000" d="M420.6595,-143.8314C420.1247,-136.131 419.4888,-126.9743 418.8945,-118.4166"/>
<polygon fill="#000000" stroke="#000000" points="422.3843,-118.1467 418.1999,-108.4133 415.4011,-118.6317 422.3843,-118.1467"/>
</g>
<!-- h -->
<g id="node8" class="node">
<title>h</title>
<ellipse fill="none" stroke="#000000" cx="647.9212" cy="-162" rx="88.0066" ry="18"/>
<text text-anchor="middle" x="647.9212" y="-157.8" font-family="Times,serif" font-size="14.00" fill="#000000">Schinken schneiden</text>
</g>
<!-- h&#45;&gt;j -->
<g id="edge12" class="edge">
<title>h-&gt;j</title>
<path fill="none" stroke="#000000" d="M599.496,-146.9064C560.3461,-134.7039 505.4618,-117.5971 466.1093,-105.3314"/>
<polygon fill="#000000" stroke="#000000" points="467.0467,-101.9575 456.4581,-102.3232 464.9636,-108.6404 467.0467,-101.9575"/>
</g>
<!-- i&#45;&gt;j -->
<g id="edge13" class="edge">
<title>i-&gt;j</title>
<path fill="none" stroke="#000000" d="M273.1046,-215.7094C273.1899,-195.906 276.2696,-164.4211 292.9212,-144 309.9406,-123.1278 336.6007,-110.1189 360.8463,-102.1169"/>
<polygon fill="#000000" stroke="#000000" points="362.1693,-105.3719 370.6988,-99.0871 360.1117,-98.6811 362.1693,-105.3719"/>
</g>
<!-- v&#45;&gt;g -->
<g id="edge8" class="edge">
<title>v-&gt;g</title>
<path fill="none" stroke="#000000" stroke-dasharray="5,2" d="M421.9212,-215.8314C421.9212,-208.131 421.9212,-198.9743 421.9212,-190.4166"/>
<polygon fill="#000000" stroke="#000000" points="425.4213,-190.4132 421.9212,-180.4133 418.4213,-190.4133 425.4213,-190.4132"/>
</g>
<!-- v&#45;&gt;h -->
<g id="edge9" class="edge">
<title>v-&gt;h</title>
<path fill="none" stroke="#000000" stroke-dasharray="5,2" d="M462.8481,-220.9613C498.5717,-209.5804 550.7892,-192.9447 590.6576,-180.2433"/>
<polygon fill="#000000" stroke="#000000" points="591.7856,-183.5573 600.2513,-177.1869 589.6607,-176.8876 591.7856,-183.5573"/>
</g>
<!-- j&#45;&gt;f -->
<g id="edge15" class="edge">
<title>j-&gt;f</title>
<path fill="none" stroke="#000000" d="M382.7938,-76.1177C355.781,-65.1294 317.7339,-49.6526 287.6936,-37.4329"/>
<polygon fill="#000000" stroke="#000000" points="288.8275,-34.1157 278.2458,-33.5897 286.1899,-40.5997 288.8275,-34.1157"/>
</g>
</g>
</svg>